<?xml version="1.0" encoding="UTF-8" standalone="no"?>
<!-- Created with Inkscape (http://www.inkscape.org/) -->

<svg
   width="316.54529mm"
   height="316.54529mm"
   viewBox="0 0 316.54529 316.54529"
   version="1.1"
   id="svg5"
   inkscape:version="1.1.1 (3bf5ae0d25, 2021-09-20)"
   sodipodi:docname="icon.svg"
   inkscape:export-filename="D:\Documents\JavaProjects\SeamstressPatternStudio\src\be\lmenten\sps\images\icon256.png"
   inkscape:export-xdpi="20.540001"
   inkscape:export-ydpi="20.540001"
   xmlns:inkscape="http://www.inkscape.org/namespaces/inkscape"
   xmlns:sodipodi="http://sodipodi.sourceforge.net/DTD/sodipodi-0.dtd"
   xmlns="http://www.w3.org/2000/svg"
   xmlns:svg="http://www.w3.org/2000/svg">
  <sodipodi:namedview
     id="namedview7"
     pagecolor="#ffffff"
     bordercolor="#666666"
     borderopacity="1.0"
     inkscape:pageshadow="2"
     inkscape:pageopacity="0.0"
     inkscape:pagecheckerboard="0"
     inkscape:document-units="mm"
     showgrid="false"
     inkscape:zoom="0.51906082"
     inkscape:cx="375.67852"
     inkscape:cy="553.885"
     inkscape:window-width="1920"
     inkscape:window-height="1009"
     inkscape:window-x="-8"
     inkscape:window-y="1072"
     inkscape:window-maximized="1"
     inkscape:current-layer="layer1"
     fit-margin-top="0"
     fit-margin-left="0"
     fit-margin-right="0"
     fit-margin-bottom="0" />
  <defs
     id="defs2" />
  <g
     inkscape:label="Layer 1"
     inkscape:groupmode="layer"
     id="layer1"
     transform="translate(224.47809,-51.697777)">
    <rect
       style="fill:#ff0000;stroke:none;stroke-width:14.2;stroke-linecap:round;stroke-linejoin:round;stroke-miterlimit:4;stroke-dasharray:none;stroke-opacity:1"
       id="rect3164"
       width="316.54529"
       height="316.54529"
       x="-224.47809"
       y="51.697777" />
    <g
       id="g3736"
       transform="translate(31.603554,14.782308)">
      <path
         style="fill:#ffffff;fill-opacity:1;stroke:#000000;stroke-width:6.365;stroke-linecap:round;stroke-linejoin:round;stroke-miterlimit:4;stroke-dasharray:none;stroke-opacity:1"
         d="m -103.01883,58.565051 -71.7051,21.412805 c 8.50251,21.950984 15.31488,44.551864 7.9155,72.617374 -7.7852,22.85947 -30.2008,24.96005 -41.90558,19.55083 l -7.9155,60.51448 85.20801,-13.96488 -66.11769,55.85952 20.9528,57.25599 c 36.8948,-13.40159 74.95316,-14.39529 113.145052,-13.96487 V 102.78716 C -95.211057,95.0111 -100.59396,77.342558 -103.01883,58.565051 Z"
         id="path1164"
         sodipodi:nodetypes="ccccccccccc" />
      <g
         id="g3060"
         transform="translate(-35.171698,8.6654905)">
        <path
           style="fill:#000000;stroke:#ffffff;stroke-width:14.2;stroke-miterlimit:4;stroke-dasharray:none;stroke-opacity:1"
           d="m -98.059845,276.10078 c -0.85748,-0.85748 -1.06367,-1.25292 -1.06367,-2.03994 0,-1.86347 9.19067,-28.75269 10.44748,-30.56627 1.78762,-2.57953 102.778181,-103.91945 112.229297,-112.61755 4.559271,-4.196 5.413571,-4.62167 9.632918,-4.79979 3.13512,-0.13234 5.42403,0.30219 7.25149,1.37664 1.588321,0.93386 6.675191,5.61535 8.375021,7.70761 0.81914,1.00824 1.8013,2.45408 2.18258,3.21297 1.08071,2.15101 1.57136,6.8798 0.94708,9.1276 -0.38362,1.38126 -2.75353,4.46576 -6.86847,8.93948 -1.94084,2.11005 -27.623098,27.95387 -57.071695,57.43071 l -53.542908,53.59426 -4.157543,1.35585 c -2.28665,0.74572 -8.74145,2.86153 -14.344,4.70179 -5.60256,1.84027 -10.80914,3.41218 -11.57019,3.49313 -1.34076,0.14261 -1.41675,0.11416 -2.44739,-0.91649 z m 16.6471,-10.51383 c 3.99285,-1.33125 7.30325,-2.55103 7.35645,-2.71062 0.0532,-0.15959 -0.60896,-1.10435 -1.47146,-2.09947 -1.99717,-2.30426 -8.64012,-8.82076 -8.99192,-8.82076 -0.26226,0 -1.07209,2.07216 -2.84358,7.27605 -1.02307,3.00536 -2.7624,8.62858 -2.76362,8.93472 -0.001,0.29848 0.73166,0.0815 8.71413,-2.57992 z m 64.776141,-56.82713 50.339514,-50.34003 -2.24604,-2.23438 -2.246047,-2.23438 -50.276537,50.25739 c -27.652097,27.64156 -50.276551,50.37468 -50.276551,50.51803 0,0.26423 3.971993,4.37341 4.227393,4.37341 0.0763,0 22.79154,-22.65302 50.478268,-50.34004 z m -9.660608,-9.38939 c 27.6127276,-27.61244 50.204944,-50.32624 50.204944,-50.47512 0,-0.14888 -0.98511,-1.25067 -2.18913,-2.44844 l -2.189119,-2.17774 -50.335885,50.20546 c -27.684739,27.61301 -50.333543,50.32205 -50.330663,50.46453 0.005,0.2642 4.24606,4.63573 4.49703,4.63573 0.0758,0 22.730104,-22.59199 50.342823,-50.20442 z m 71.214363,-52.3064 c 0.25508,-0.53756 0.53044,-1.62309 0.61189,-2.41231 0.25492,-2.46989 -0.31815,-3.47679 -4.13211,-7.2602 -3.996361,-3.96435 -5.048451,-4.72413 -6.834641,-4.93567 -2.13347,-0.25268 -3.74584,0.65036 -7.233127,4.05109 l -2.91502,2.84265 7.221277,7.2385 7.22127,7.23852 2.798331,-2.89261 c 1.53909,-1.59093 3.00704,-3.33242 3.26213,-3.86997 z"
           id="path854"
           sodipodi:nodetypes="ssssssssssscssssssssscsscccssssssscscssssssscccss" />
        <path
           style="fill:#000000;stroke:none;stroke-width:6.9;stroke-miterlimit:4;stroke-dasharray:none;stroke-opacity:1"
           d="m -98.059844,276.10078 c -0.85748,-0.85748 -1.06367,-1.25292 -1.06367,-2.03994 0,-1.86347 9.19067,-28.75269 10.44748,-30.56627 1.78762,-2.57953 102.778182,-103.91945 112.229292,-112.61755 4.55927,-4.196 5.41357,-4.62167 9.63292,-4.79979 3.13512,-0.13234 5.42403,0.30219 7.25149,1.37664 1.58832,0.93386 6.67519,5.61535 8.37502,7.70761 0.81914,1.00824 1.8013,2.45408 2.18258,3.21297 1.08071,2.15101 1.57136,6.8798 0.94708,9.1276 -0.38362,1.38126 -2.75353,4.46576 -6.86847,8.93948 -1.94084,2.11005 -27.6231,27.95387 -57.071692,57.43071 l -53.54291,53.59426 -4.15754,1.35585 c -2.28665,0.74572 -8.74145,2.86153 -14.344,4.70179 -5.60256,1.84027 -10.80914,3.41218 -11.57019,3.49313 -1.34076,0.14261 -1.41675,0.11416 -2.44739,-0.91649 z m 16.6471,-10.51383 c 3.99285,-1.33125 7.30325,-2.55103 7.35645,-2.71062 0.0532,-0.15959 -0.60896,-1.10435 -1.47146,-2.09947 -1.99717,-2.30426 -8.64012,-8.82076 -8.99192,-8.82076 -0.26226,0 -1.07209,2.07216 -2.84358,7.27605 -1.02307,3.00536 -2.7624,8.62858 -2.76362,8.93472 -0.001,0.29848 0.73166,0.0815 8.71413,-2.57992 z m 64.77614,-56.82713 50.339512,-50.34003 -2.24604,-2.23438 -2.24605,-2.23438 -50.276532,50.25739 c -27.6521,27.64156 -50.27655,50.37468 -50.27655,50.51803 0,0.26423 3.97199,4.37341 4.22739,4.37341 0.0763,0 22.79154,-22.65302 50.47827,-50.34004 z m -9.66061,-9.38939 c 27.61273,-27.61244 50.204942,-50.32624 50.204942,-50.47512 0,-0.14888 -0.98511,-1.25067 -2.18913,-2.44844 l -2.18912,-2.17774 -50.335882,50.20546 c -27.68474,27.61301 -50.33354,50.32205 -50.33066,50.46453 0.005,0.2642 4.24606,4.63573 4.49703,4.63573 0.0758,0 22.7301,-22.59199 50.34282,-50.20442 z m 71.214362,-52.3064 c 0.25508,-0.53756 0.53044,-1.62309 0.61189,-2.41231 0.25492,-2.46989 -0.31815,-3.47679 -4.13211,-7.2602 -3.99636,-3.96435 -5.04845,-4.72413 -6.83464,-4.93567 -2.13347,-0.25268 -3.74584,0.65036 -7.23313,4.05109 l -2.91502,2.84265 7.22128,7.2385 7.22127,7.23852 2.79833,-2.89261 c 1.53909,-1.59093 3.00704,-3.33242 3.26213,-3.86997 z"
           id="path854-6"
           sodipodi:nodetypes="ssssssssssscssssssssscsscccssssssscscssssssscccss" />
      </g>
    </g>
  </g>
</svg>
